<svg width="190" height="191" viewBox="0 0 190 191" fill="none" xmlns="http://www.w3.org/2000/svg">
    <defs>
        <linearGradient id="paint0_linear_131_6" x1="212.514" y1="35.0705" x2="51.3883" y2="122.184"
                        gradientUnits="userSpaceOnUse">
            <stop offset="0.313542" stop-color="#9B00E4"/>
            <stop offset="0.688542" stop-color="#3C009E"/>
        </linearGradient>
        <linearGradient id="paint1_linear_131_6" x1="35.815" y1="103.204" x2="109.362" y2="55.4689"
                        gradientUnits="userSpaceOnUse">
            <stop offset="0.313542" stop-color="#9B00E4"/>
            <stop offset="0.688542" stop-color="#3C009E"/>
        </linearGradient>
    </defs>
    <path fill-rule="evenodd" clip-rule="evenodd"
          d="M94.5 191C147.243 191 190 148.243 190 95.5C190 42.7568 147.243 0 94.5 0C41.7568 0 -1 42.7568 -1 95.5C-1 148.243 41.7568 191 94.5 191ZM94.5 178C140.063 178 177 141.063 177 95.5C177 49.9365 140.063 13 94.5 13C48.9365 13 12 49.9365 12 95.5C12 141.063 48.9365 178 94.5 178Z"
          fill="url(#paint0_linear_131_6)"/>
    <path d="M47.8805 56.3585C44.9405 70.4566 51.5697 89.4252 49.7251 106.713C47.8805 124 55.0001 116 68.9998 116C80.3178 116 97.3588 124.06 92.7634 106.713C88.168 89.3656 87.2677 80.2859 102.119 82.225C116.971 84.1642 131.879 84.9231 140.034 78.6945C124.637 77.457 103.622 72.6223 97.0921 67.291C107.663 55.8144 125.057 57.6775 143 63.0734C136.508 50.644 110.39 48.9014 102.119 50.7174C102.119 50.7174 93.2123 41.3486 85.0113 39.2703C67.6125 34.8609 50.8205 42.2603 47.8805 56.3585Z"
          fill="#C4C4C4"/>
    <path d="M47.8805 56.3585C44.9405 70.4566 51.5697 89.4252 49.7251 106.713C47.8805 124 55.0001 116 68.9998 116C80.3178 116 97.3588 124.06 92.7634 106.713C88.168 89.3656 87.2677 80.2859 102.119 82.225C116.971 84.1642 131.879 84.9231 140.034 78.6945C124.637 77.457 103.622 72.6223 97.0921 67.291C107.663 55.8144 125.057 57.6775 143 63.0734C136.508 50.644 110.39 48.9014 102.119 50.7174C102.119 50.7174 93.2123 41.3486 85.0113 39.2703C67.6125 34.8609 50.8205 42.2603 47.8805 56.3585Z"
          fill="url(#paint1_linear_131_6)"/>
    <ellipse cx="74.1133" cy="55.6368" rx="4.68888" ry="4.61323" fill="#DFDFDF"/>

</svg>
