<svg width="80" height="130" viewBox="0 0 80 130" fill="none" xmlns="http://www.w3.org/2000/svg">
    <defs>
        <linearGradient id="paint0_linear_38_570" x1="129.5" y1="-36" x2="-19" y2="13" gradientUnits="userSpaceOnUse">
            <stop offset="0.523364" stop-color="#FFDEEE"/>
            <stop offset="0.95463" stop-color="#D72C88"/>
        </linearGradient>
        <linearGradient id="paint1_linear_38_570" x1="70" y1="15" x2="23.8907" y2="59.3283"
                        gradientUnits="userSpaceOnUse">
            <stop offset="0.271808" stop-color="#FFDCE4"/>
            <stop offset="1" stop-color="#A21168"/>
        </linearGradient>
        <linearGradient id="paint2_linear_38_570" x1="70" y1="15" x2="23.8907" y2="59.3283"
                        gradientUnits="userSpaceOnUse">
            <stop offset="0.271808" stop-color="#440B18"/>
            <stop offset="1" stop-color="#A21168"/>
        </linearGradient>
    </defs>
    <mask id="mask0_38_570" style="mask-type:alpha" maskUnits="userSpaceOnUse" x="0" y="0" width="80" height="130">
        <rect width="80" height="130" fill="#DFDFDF"/>
    </mask>
    <g mask="url(#mask0_38_570)">
        <path d="M99 171.004H-19C-10 151 2.50031 143.5 6.5 96.5037C10.8404 45.5037 5 0.503683 39.5 0.00368297C74 -0.496317 71 50.0037 74 96.5037C77 143.004 90.5 152.504 99 171.004Z"
              fill="url(#paint0_linear_38_570)"/>
        <path fill-rule="evenodd" clip-rule="evenodd"
              d="M22 42.6183C41 26 38 26 57 42.6183C54.1774 74.8524 24.8226 74.8525 22 42.6183ZM57 42.6183C57 42.6183 47.4032 40.0505 39.5 43C32.1613 40.0505 22 42.6183 22 42.6183C22 42.6183 28.2097 46.5 39.5 46.5C52.4862 46.5 57 42.6183 57 42.6183Z"
              fill="url(#paint1_linear_38_570)"/>
        <path d="M22 42.6183C22 42.6183 28.2097 46.5 39.5 46.5C52.4862 46.5 57 42.6183 57 42.6183C57 42.6183 47.4032 40.0505 39.5 43C32.1613 40.0505 22 42.6183 22 42.6183Z"
              fill="url(#paint2_linear_38_570)"/>
        <path d="M22 42.6183L21.9671 42.5806L21.948 42.5974L21.9502 42.6226L22 42.6183ZM57 42.6183L57.0498 42.6226L57.052 42.5974L57.0329 42.5806L57 42.6183ZM39.5 43L39.4814 43.0464L39.4993 43.0536L39.5175 43.0468L39.5 43ZM22.0329 42.6559C26.7847 38.4998 30.1572 35.3861 32.8431 33.3101C35.5294 31.2336 37.5179 30.2046 39.5 30.2046C41.4821 30.2046 43.4706 31.2336 46.1569 33.3101C48.8428 35.3861 52.2153 38.4998 56.9671 42.6559L57.0329 42.5806C52.2847 38.4276 48.9072 35.3095 46.2181 33.2309C43.5294 31.1528 41.5179 30.1046 39.5 30.1046C37.4821 30.1046 35.4706 31.1528 32.7819 33.2309C30.0928 35.3095 26.7153 38.4276 21.9671 42.5806L22.0329 42.6559ZM56.9502 42.6139C55.5398 58.7207 47.5054 66.7439 39.5 66.7439C31.4946 66.7439 23.4602 58.7207 22.0498 42.6139L21.9502 42.6226C23.3624 58.7501 31.4167 66.8439 39.5 66.8439C47.5833 66.8439 55.6376 58.7501 57.0498 42.6226L56.9502 42.6139ZM22 42.6183C21.9735 42.6607 21.9735 42.6607 21.9736 42.6607C21.9737 42.6608 21.9737 42.6608 21.9738 42.6609C21.9741 42.661 21.9744 42.6612 21.9748 42.6615C21.9756 42.662 21.9768 42.6627 21.9783 42.6637C21.9814 42.6656 21.9861 42.6684 21.9922 42.6721C22.0045 42.6796 22.0228 42.6906 22.0471 42.7049C22.0957 42.7336 22.1683 42.7755 22.2647 42.8288C22.4573 42.9354 22.7449 43.0875 23.125 43.2699C23.8854 43.6347 25.0165 44.1207 26.5006 44.6067C29.4688 45.5786 33.849 46.55 39.5 46.55V46.45C33.8606 46.45 29.4909 45.4806 26.5317 44.5116C25.0521 44.0271 23.9251 43.5428 23.1683 43.1797C22.7899 42.9982 22.5041 42.847 22.3131 42.7413C22.2176 42.6885 22.1457 42.647 22.0979 42.6188C22.074 42.6047 22.056 42.5939 22.0441 42.5867C22.0382 42.5831 22.0337 42.5803 22.0308 42.5785C22.0293 42.5776 22.0282 42.5769 22.0275 42.5765C22.0271 42.5763 22.0269 42.5761 22.0267 42.576C22.0266 42.576 22.0266 42.5759 22.0265 42.5759C22.0265 42.5759 22.0265 42.5759 22 42.6183ZM39.5 46.55C45.9981 46.55 50.3788 45.5788 53.1365 44.6063C54.5152 44.12 55.4881 43.6335 56.1169 43.268C56.4313 43.0853 56.6597 42.9328 56.8097 42.8258C56.8847 42.7723 56.9402 42.7301 56.977 42.7012C56.9954 42.6868 57.0092 42.6756 57.0184 42.668C57.023 42.6643 57.0265 42.6614 57.0289 42.6594C57.03 42.6584 57.0309 42.6576 57.0316 42.6571C57.0319 42.6568 57.0321 42.6566 57.0323 42.6565C57.0324 42.6564 57.0325 42.6563 57.0325 42.6563C57.0326 42.6562 57.0326 42.6562 57 42.6183C56.9674 42.5804 56.9674 42.5804 56.9674 42.5804C56.9674 42.5804 56.9673 42.5804 56.9673 42.5805C56.9672 42.5805 56.967 42.5807 56.9668 42.5809C56.9663 42.5813 56.9655 42.582 56.9645 42.5828C56.9624 42.5846 56.9592 42.5872 56.9549 42.5908C56.9463 42.5979 56.9331 42.6086 56.9153 42.6225C56.8796 42.6505 56.8254 42.6917 56.7516 42.7444C56.6041 42.8496 56.3784 43.0004 56.0667 43.1816C55.4433 43.5439 54.4761 44.0278 53.1032 44.512C50.3574 45.4803 45.9881 46.45 39.5 46.45V46.55ZM22 42.6183C22.0122 42.6668 22.0123 42.6667 22.0123 42.6667C22.0124 42.6667 22.0125 42.6667 22.0127 42.6666C22.013 42.6666 22.0134 42.6665 22.014 42.6663C22.0152 42.666 22.017 42.6656 22.0195 42.6649C22.0243 42.6637 22.0316 42.6619 22.0413 42.6596C22.0606 42.6548 22.0895 42.6478 22.1275 42.6388C22.2034 42.6208 22.3159 42.5947 22.4617 42.5625C22.7534 42.4982 23.1784 42.4095 23.7113 42.3123C24.7774 42.1179 26.2751 41.8894 28.0019 41.7529C31.4569 41.4799 35.8227 41.576 39.4814 43.0464L39.5186 42.9536C35.8386 41.4746 31.4544 41.3798 27.994 41.6533C26.2632 41.79 24.762 42.0191 23.6934 42.214C23.1591 42.3114 22.7329 42.4003 22.4402 42.4649C22.2938 42.4972 22.1808 42.5234 22.1044 42.5415C22.0661 42.5506 22.037 42.5576 22.0175 42.5624C22.0077 42.5648 22.0003 42.5667 21.9953 42.5679C21.9928 42.5685 21.991 42.569 21.9897 42.5693C21.9891 42.5695 21.9886 42.5696 21.9883 42.5697C21.9881 42.5697 21.988 42.5697 21.9879 42.5698C21.9878 42.5698 21.9878 42.5698 22 42.6183ZM39.5175 43.0468C43.4593 41.5758 47.8259 41.48 51.2097 41.7529C52.9011 41.8894 54.3459 42.1179 55.3677 42.3123C55.8786 42.4095 56.2836 42.4981 56.5609 42.5624C56.6995 42.5946 56.8062 42.6206 56.8781 42.6387C56.9141 42.6477 56.9414 42.6547 56.9597 42.6594C56.9688 42.6618 56.9757 42.6636 56.9803 42.6648C56.9826 42.6654 56.9843 42.6658 56.9854 42.6661C56.986 42.6663 56.9864 42.6664 56.9867 42.6665C56.9868 42.6665 56.9869 42.6665 56.987 42.6666C56.9871 42.6666 56.9871 42.6666 57 42.6183C57.0129 42.57 57.0129 42.57 57.0128 42.5699C57.0127 42.5699 57.0126 42.5699 57.0124 42.5698C57.0121 42.5698 57.0117 42.5696 57.0111 42.5695C57.0099 42.5692 57.0081 42.5687 57.0057 42.5681C57.001 42.5668 56.994 42.565 56.9848 42.5626C56.9662 42.5578 56.9387 42.5507 56.9024 42.5417C56.83 42.5235 56.7227 42.4973 56.5835 42.465C56.3051 42.4004 55.8987 42.3115 55.3864 42.214C54.3618 42.0191 52.9134 41.7901 51.2177 41.6533C47.8273 41.3797 43.4439 41.4748 39.4825 42.9532L39.5175 43.0468Z"
              fill="#272129"/>
        <circle cx="52.5" cy="24.5" r="4.5" transform="rotate(180 52.5 24.5)" fill="#832763"/>
        <circle cx="27.5" cy="24.5" r="4.5" transform="rotate(180 27.5 24.5)" fill="#832763"/>
    </g>

</svg>
