<svg width="96" height="151" viewBox="0 0 96 151" fill="none" xmlns="http://www.w3.org/2000/svg">
    <defs>
        <linearGradient id="paint0_linear_136_2" x1="-50.5" y1="175.5" x2="123.5" y2="114"
                        gradientUnits="userSpaceOnUse">
            <stop offset="0.426516" stop-color="#F8DCFF"/>
            <stop offset="0.845684" stop-color="#801093"/>
        </linearGradient>
        <linearGradient id="paint1_linear_136_2" x1="31" y1="116" x2="85.5519" y2="49.9931"
                        gradientUnits="userSpaceOnUse">
            <stop offset="0.147272" stop-color="#B863C6"/>
            <stop offset="0.334453" stop-color="#7A1683"/>
            <stop offset="0.902083" stop-color="#9B00E4"/>
        </linearGradient>
        <linearGradient id="paint2_linear_136_2" x1="31" y1="116" x2="85.5519" y2="49.9931"
                        gradientUnits="userSpaceOnUse">
            <stop offset="0.147272"/>
            <stop offset="0.334453" stop-color="#7A1683"/>
            <stop offset="0.902083" stop-color="#9B00E4"/>
        </linearGradient>
    </defs>
    <mask id="mask0_136_2" style="mask-type:alpha" maskUnits="userSpaceOnUse" x="0" y="0" width="96" height="151">
        <rect x="96" y="151" width="96" height="151" transform="rotate(-180 96 151)" fill="#DFDFDF"/>
    </mask>
    <g mask="url(#mask0_136_2)">
        <path d="M-11 -20.0037L107 -20.0037C98 1.66869e-07 85.4997 7.5 81.5 54.4963C77.1596 105.496 83 150.496 48.5 150.996C14 151.496 17 100.996 14 54.4963C11 7.99631 -2.49999 -1.50369 -11 -20.0037Z"
              fill="url(#paint0_linear_136_2)"/>
        <path fill-rule="evenodd" clip-rule="evenodd"
              d="M66 108.382C47 125 50 125 31 108.382C33.8226 76.1475 63.1774 76.1476 66 108.382ZM31 108.382C31 108.382 40.5968 110.949 48.5 108C55.8387 110.949 66 108.382 66 108.382C66 108.382 59.7903 104.5 48.5 104.5C35.5138 104.5 31 108.382 31 108.382Z"
              fill="url(#paint1_linear_136_2)"/>
        <path d="M66 108.382C66 108.382 59.7903 104.5 48.5 104.5C35.5138 104.5 31 108.382 31 108.382C31 108.382 40.5968 110.949 48.5 108C55.8387 110.949 66 108.382 66 108.382Z"
              fill="url(#paint2_linear_136_2)"/>
        <path d="M66 108.382L66.0329 108.419L66.052 108.403L66.0498 108.377L66 108.382ZM31 108.382L30.9502 108.377L30.948 108.403L30.9671 108.419L31 108.382ZM48.5 108L48.5186 107.954L48.5007 107.946L48.4825 107.953L48.5 108ZM65.9671 108.344C61.2153 112.5 57.8428 115.614 55.1569 117.69C52.4706 119.766 50.4821 120.795 48.5 120.795C46.5179 120.795 44.5294 119.766 41.8431 117.69C39.1572 115.614 35.7847 112.5 31.0329 108.344L30.9671 108.419C35.7153 112.572 39.0928 115.691 41.7819 117.769C44.4706 119.847 46.4821 120.895 48.5 120.895C50.5179 120.895 52.5294 119.847 55.2181 117.769C57.9072 115.691 61.2847 112.572 66.0329 108.419L65.9671 108.344ZM31.0498 108.386C32.4602 92.2793 40.4946 84.2561 48.5 84.2561C56.5054 84.2561 64.5398 92.2793 65.9502 108.386L66.0498 108.377C64.6376 92.2499 56.5833 84.1561 48.5 84.1561C40.4167 84.1561 32.3624 92.2499 30.9502 108.377L31.0498 108.386ZM66 108.382C66.0265 108.339 66.0265 108.339 66.0264 108.339C66.0263 108.339 66.0263 108.339 66.0262 108.339C66.0259 108.339 66.0256 108.339 66.0252 108.339C66.0244 108.338 66.0232 108.337 66.0217 108.336C66.0186 108.334 66.0139 108.332 66.0078 108.328C65.9955 108.32 65.9772 108.309 65.9529 108.295C65.9043 108.266 65.8317 108.224 65.7353 108.171C65.5427 108.065 65.2551 107.913 64.875 107.73C64.1146 107.365 62.9835 106.879 61.4994 106.393C58.5312 105.421 54.151 104.45 48.5 104.45L48.5 104.55C54.1394 104.55 58.5091 105.519 61.4683 106.488C62.9479 106.973 64.0749 107.457 64.8317 107.82C65.2101 108.002 65.4959 108.153 65.6869 108.259C65.7824 108.312 65.8543 108.353 65.9021 108.381C65.926 108.395 65.944 108.406 65.9559 108.413C65.9618 108.417 65.9663 108.42 65.9692 108.421C65.9707 108.422 65.9718 108.423 65.9725 108.423C65.9729 108.424 65.9731 108.424 65.9733 108.424C65.9734 108.424 65.9734 108.424 65.9735 108.424C65.9735 108.424 65.9735 108.424 66 108.382ZM48.5 104.45C42.0019 104.45 37.6212 105.421 34.8635 106.394C33.4848 106.88 32.5119 107.366 31.8831 107.732C31.5687 107.915 31.3403 108.067 31.1903 108.174C31.1153 108.228 31.0598 108.27 31.023 108.299C31.0046 108.313 30.9908 108.324 30.9816 108.332C30.977 108.336 30.9735 108.339 30.9711 108.341C30.97 108.342 30.9691 108.342 30.9684 108.343C30.9681 108.343 30.9679 108.343 30.9677 108.344C30.9676 108.344 30.9675 108.344 30.9675 108.344C30.9674 108.344 30.9674 108.344 31 108.382C31.0326 108.42 31.0326 108.42 31.0326 108.42C31.0326 108.42 31.0327 108.42 31.0327 108.42C31.0328 108.419 31.033 108.419 31.0332 108.419C31.0337 108.419 31.0345 108.418 31.0355 108.417C31.0376 108.415 31.0408 108.413 31.0451 108.409C31.0537 108.402 31.0669 108.391 31.0847 108.377C31.1204 108.349 31.1746 108.308 31.2484 108.256C31.3959 108.15 31.6216 108 31.9333 107.818C32.5567 107.456 33.5239 106.972 34.8968 106.488C37.6426 105.52 42.0119 104.55 48.5 104.55L48.5 104.45ZM66 108.382C65.9878 108.333 65.9877 108.333 65.9877 108.333C65.9876 108.333 65.9875 108.333 65.9873 108.333C65.987 108.333 65.9866 108.334 65.986 108.334C65.9848 108.334 65.983 108.334 65.9805 108.335C65.9757 108.336 65.9684 108.338 65.9587 108.34C65.9394 108.345 65.9105 108.352 65.8725 108.361C65.7966 108.379 65.6841 108.405 65.5383 108.437C65.2466 108.502 64.8216 108.59 64.2887 108.688C63.2226 108.882 61.7249 109.111 59.9981 109.247C56.5431 109.52 52.1773 109.424 48.5186 107.954L48.4814 108.046C52.1614 109.525 56.5456 109.62 60.006 109.347C61.7368 109.21 63.238 108.981 64.3066 108.786C64.8409 108.689 65.2671 108.6 65.5598 108.535C65.7062 108.503 65.8192 108.477 65.8956 108.458C65.9339 108.449 65.963 108.442 65.9825 108.438C65.9923 108.435 65.9997 108.433 66.0047 108.432C66.0072 108.431 66.009 108.431 66.0103 108.431C66.0109 108.431 66.0114 108.43 66.0117 108.43C66.0119 108.43 66.012 108.43 66.0121 108.43C66.0122 108.43 66.0123 108.43 66 108.382ZM48.4825 107.953C44.5407 109.424 40.1741 109.52 36.7903 109.247C35.0989 109.111 33.6541 108.882 32.6323 108.688C32.1214 108.591 31.7164 108.502 31.4391 108.438C31.3005 108.405 31.1938 108.379 31.1219 108.361C31.0859 108.352 31.0586 108.345 31.0403 108.341C31.0312 108.338 31.0243 108.336 31.0197 108.335C31.0174 108.335 31.0157 108.334 31.0146 108.334C31.014 108.334 31.0136 108.334 31.0133 108.334C31.0132 108.333 31.0131 108.333 31.013 108.333C31.0129 108.333 31.0129 108.333 31 108.382C30.9871 108.43 30.9871 108.43 30.9872 108.43C30.9873 108.43 30.9874 108.43 30.9876 108.43C30.9879 108.43 30.9883 108.43 30.9889 108.431C30.9901 108.431 30.9919 108.431 30.9943 108.432C30.999 108.433 31.006 108.435 31.0152 108.437C31.0338 108.442 31.0613 108.449 31.0976 108.458C31.17 108.476 31.2773 108.503 31.4165 108.535C31.6949 108.6 32.1013 108.689 32.6136 108.786C33.6382 108.981 35.0866 109.21 36.7823 109.347C40.1727 109.62 44.5561 109.525 48.5175 108.047L48.4825 107.953Z"
              fill="#272129"/>
        <circle cx="35.5" cy="125.5" r="3.5" fill="#360542"/>
        <circle cx="61.5" cy="125.5" r="3.5" fill="#360542"/>
    </g>

</svg>
