<svg width="191" height="191" viewBox="0 0 191 191" fill="none" xmlns="http://www.w3.org/2000/svg">
    <defs>
        <linearGradient id="paint0_linear_131_6" x1="213.514" y1="35.0705" x2="52.3883" y2="122.184"
                        gradientUnits="userSpaceOnUse">
            <stop offset="0.313542" stop-color="#111111"/>
            <stop offset="0.688542" stop-color="#111111"/>
        </linearGradient>
        <linearGradient id="paint1_linear_131_6" x1="36.815" y1="103.205" x2="110.362" y2="55.469"
                        gradientUnits="userSpaceOnUse">
            <stop offset="0.313542" stop-color="#111111"/>
            <stop offset="0.688542" stop-color="#111111"/>
        </linearGradient>
    </defs>
    <path fill-rule="evenodd" clip-rule="evenodd"
          d="M95.5 191C148.243 191 191 148.243 191 95.5C191 42.7568 148.243 3.05176e-05 95.5 3.05176e-05C42.7568 3.05176e-05 0 42.7568 0 95.5C0 148.243 42.7568 191 95.5 191ZM95.5 178C141.063 178 178 141.064 178 95.5C178 49.9365 141.063 13 95.5 13C49.9365 13 13 49.9365 13 95.5C13 141.064 49.9365 178 95.5 178Z"
          fill="url(#paint0_linear_131_6)"/>
    <path d="M48.8805 56.3585C45.9405 70.4566 52.5697 89.4252 50.7251 106.713C48.8805 124 56.0002 116 69.9998 116C81.3179 116 98.3589 124.06 93.7634 106.713C89.168 89.3657 88.2678 80.2859 103.119 82.2251C117.971 84.1642 132.879 84.9232 141.034 78.6945C125.637 77.457 104.622 72.6223 98.0921 67.291C108.663 55.8144 126.057 57.6776 144 63.0735C137.508 50.644 111.39 48.9014 103.119 50.7175C103.119 50.7175 94.2124 41.3486 86.0114 39.2703C68.6126 34.861 51.8205 42.2604 48.8805 56.3585Z"
          fill="#C4C4C4"/>
    <path d="M48.8805 56.3585C45.9405 70.4566 52.5697 89.4252 50.7251 106.713C48.8805 124 56.0002 116 69.9998 116C81.3179 116 98.3589 124.06 93.7634 106.713C89.168 89.3657 88.2678 80.2859 103.119 82.2251C117.971 84.1642 132.879 84.9232 141.034 78.6945C125.637 77.457 104.622 72.6223 98.0921 67.291C108.663 55.8144 126.057 57.6776 144 63.0735C137.508 50.644 111.39 48.9014 103.119 50.7175C103.119 50.7175 94.2124 41.3486 86.0114 39.2703C68.6126 34.861 51.8205 42.2604 48.8805 56.3585Z"
          fill="url(#paint1_linear_131_6)"/>
    <ellipse cx="75.1133" cy="55.6368" rx="4.68888" ry="4.61323" fill="#DFDFDF"/>

</svg>
