<svg width="191" height="191" viewBox="0 0 191 191" fill="none" xmlns="http://www.w3.org/2000/svg">
    <defs>
        <linearGradient id="paint0_linear_139_16" x1="254.936" y1="-27.3649" x2="3.95539" y2="101.191"
                        gradientUnits="userSpaceOnUse">
            <stop offset="0.273378" stop-color="#DDDCFF"/>
            <stop offset="0.880698" stop-color="#801093"/>
        </linearGradient>
        <linearGradient id="paint1_linear_139_16" x1="157" y1="29.5" x2="49.134" y2="145.981"
                        gradientUnits="userSpaceOnUse">
            <stop offset="0.426516" stop-color="#DDDCFF"/>
            <stop offset="0.845684" stop-color="#801093"/>
        </linearGradient>
    </defs>
    <path fill-rule="evenodd" clip-rule="evenodd"
          d="M95.5 191C148.243 191 191 148.243 191 95.5C191 42.7568 148.243 0 95.5 0C42.7568 0 0 42.7568 0 95.5C0 148.243 42.7568 191 95.5 191ZM95.5 178C141.063 178 178 141.063 178 95.5C178 49.9365 141.063 13 95.5 13C49.9365 13 13 49.9365 13 95.5C13 141.063 49.9365 178 95.5 178Z"
          fill="url(#paint0_linear_139_16)"/>
    <path d="M48.8805 56.3585C45.9405 70.4566 52.5697 89.4252 50.7251 106.713C48.8805 124 56.0001 116 69.9998 116C81.3178 116 98.3588 124.06 93.7634 106.713C89.168 89.3656 88.2677 80.2859 103.119 82.225C117.971 84.1642 132.879 84.9231 141.034 78.6945C125.637 77.457 104.622 72.6223 98.0921 67.291C108.663 55.8144 126.057 57.6775 144 63.0734C137.508 50.644 111.39 48.9014 103.119 50.7174C103.119 50.7174 94.2123 41.3486 86.0113 39.2703C68.6125 34.8609 51.8205 42.2603 48.8805 56.3585Z"
          fill="#C4C4C4"/>
    <path d="M48.8805 56.3585C45.9405 70.4566 52.5697 89.4252 50.7251 106.713C48.8805 124 56.0001 116 69.9998 116C81.3178 116 98.3588 124.06 93.7634 106.713C89.168 89.3656 88.2677 80.2859 103.119 82.225C117.971 84.1642 132.879 84.9231 141.034 78.6945C125.637 77.457 104.622 72.6223 98.0921 67.291C108.663 55.8144 126.057 57.6775 144 63.0734C137.508 50.644 111.39 48.9014 103.119 50.7174C103.119 50.7174 94.2123 41.3486 86.0113 39.2703C68.6125 34.8609 51.8205 42.2603 48.8805 56.3585Z"
          fill="url(#paint1_linear_139_16)"/>
    <ellipse cx="75.1133" cy="55.6368" rx="4.68888" ry="4.61323" fill="#360542"/>

</svg>
