<svg width="40" height="40" viewBox="0 0 40 40" fill="none" xmlns="http://www.w3.org/2000/svg">
    <defs>
        <linearGradient id="paint0_linear_30_429" x1="8.7731" y1="26.946" x2="25.7866" y2="19.2882" gradientUnits="userSpaceOnUse">
            <stop offset="0.313542" stop-color="#9B00E4"/>
            <stop offset="0.688542" stop-color="#3C009E"/>
        </linearGradient>
    </defs>
    <rect width="40" height="40" rx="10" fill="#DFDFDF"/>
    <path d="M13.839 20.4573C13.7017 25.0297 11.5584 28.4704 10.9853 31.0854L25.169 31.0854C24.9443 29.6151 21.9661 23.4655 21.182 20.4573C20.3979 17.4491 20.2443 15.8745 22.7783 16.2108C25.3122 16.5471 27.8557 16.6787 29.2471 15.5985C26.6202 15.3839 23.0346 14.5455 21.9205 13.621C23.724 11.6308 26.6918 11.9539 29.7532 12.8896C28.6455 10.7342 24.1893 10.432 22.7783 10.7469C22.7783 10.7469 21.2586 9.12223 19.8594 8.76181C16.8908 7.99717 14.0258 9.28034 13.5242 11.7252C13.0226 14.17 13.9762 15.8849 13.839 20.4573Z"
          fill="url(#paint0_linear_30_429)"/>
    <circle cx="18" cy="11.6" r="0.8" fill="#DFDFDF"/>
</svg>
