<svg width="230" height="230" viewBox="0 0 230 230" fill="none" xmlns="http://www.w3.org/2000/svg">
    <defs>
        <linearGradient id="paint0_linear_37_448" x1="148.411" y1="146.485" x2="75.8983" y2="193.348"
                        gradientUnits="userSpaceOnUse">
            <stop offset="0.313542" stop-color="#111111"/>
            <stop offset="0.688542" stop-color="#111111"/>
        </linearGradient>
        <linearGradient id="paint1_linear_37_448" x1="69.953" y1="129.744" x2="65.279" y2="43.3809"
                        gradientUnits="userSpaceOnUse">
            <stop offset="0.313542" stop-color="#111111"/>
            <stop offset="0.688542" stop-color="#111111"/>
        </linearGradient>
        <linearGradient id="paint2_linear_37_448" x1="124.909" y1="70.3955" x2="202.038" y2="109.529"
                        gradientUnits="userSpaceOnUse">
            <stop offset="0.313542" stop-color="#111111"/>
            <stop offset="0.688542" stop-color="#111111"/>
        </linearGradient>
    </defs>
    <path d="M136.545 192.753C139.437 178.829 132.917 160.094 134.731 143.02C136.545 125.945 129.544 133.847 115.776 133.847C104.645 133.847 87.8858 125.886 92.4052 143.02C96.9246 160.153 97.8099 169.121 83.204 167.205C68.598 165.29 53.9369 164.541 45.917 170.693C61.0587 171.915 81.7264 176.69 88.1482 181.955C77.7526 193.291 60.6461 191.45 43 186.121C49.3848 198.397 75.0706 200.118 83.204 198.325C83.204 198.325 91.9637 207.578 100.029 209.631C117.14 213.986 133.654 206.678 136.545 192.753Z"
          fill="#C4C4C4"/>
    <path d="M136.545 192.753C139.437 178.829 132.917 160.094 134.731 143.02C136.545 125.945 129.544 133.847 115.776 133.847C104.645 133.847 87.8858 125.886 92.4052 143.02C96.9246 160.153 97.8099 169.121 83.204 167.205C68.598 165.29 53.9369 164.541 45.917 170.693C61.0587 171.915 81.7264 176.69 88.1482 181.955C77.7526 193.291 60.6461 191.45 43 186.121C49.3848 198.397 75.0706 200.118 83.204 198.325C83.204 198.325 91.9637 207.578 100.029 209.631C117.14 213.986 133.654 206.678 136.545 192.753Z"
          fill="url(#paint0_linear_37_448)"/>
    <ellipse cx="110.747" cy="193.466" rx="4.61129" ry="4.55638" transform="rotate(-180 110.747 193.466)"
             fill="#DFDFDF"/>
    <path d="M36.0129 96.388C46.5683 105.835 65.9975 109.492 79.8103 119.571C93.623 129.649 90.3252 119.625 97.2388 107.651C102.828 97.9699 118.108 87.357 101.064 82.7577C84.0205 78.1585 75.8427 74.4637 84.8286 62.7138C93.8145 50.9639 101.823 38.5857 100.545 28.5476C91.8879 41.1085 77.3919 56.7068 69.6266 59.6705C65.0721 44.9857 75.249 31.0236 88.7055 18.3293C74.9134 17.7705 60.5311 39.2537 57.9937 47.2207C57.9937 47.2207 45.6156 50.2325 39.7956 56.2253C27.448 68.9392 25.4574 86.9408 36.0129 96.388Z"
          fill="#C4C4C4"/>
    <path d="M36.0129 96.388C46.5683 105.835 65.9975 109.492 79.8103 119.571C93.623 129.649 90.3252 119.625 97.2388 107.651C102.828 97.9699 118.108 87.357 101.064 82.7577C84.0205 78.1585 75.8427 74.4637 84.8286 62.7138C93.8145 50.9639 101.823 38.5857 100.545 28.5476C91.8879 41.1085 77.3919 56.7068 69.6266 59.6705C65.0721 44.9857 75.249 31.0236 88.7055 18.3293C74.9134 17.7705 60.5311 39.2537 57.9937 47.2207C57.9937 47.2207 45.6156 50.2325 39.7956 56.2253C27.448 68.9392 25.4574 86.9408 36.0129 96.388Z"
          fill="url(#paint1_linear_37_448)"/>
    <ellipse cx="48.353" cy="73.5948" rx="4.63109" ry="4.5369" transform="rotate(-60 48.353 73.5948)" fill="#DFDFDF"/>
    <path d="M170.766 57.6804C157.307 62.0981 144.425 77.0957 128.79 84.0187C113.156 90.9416 123.485 93.0975 130.399 105.072C135.988 114.753 137.539 133.292 150.044 120.832C162.549 108.371 169.838 103.136 175.521 116.793C181.204 130.45 187.919 143.575 197.251 147.487C190.702 133.709 184.441 113.356 185.757 105.149C200.752 108.548 207.755 124.342 212.02 142.343C219.4 130.678 207.986 107.481 202.356 101.3C202.356 101.3 205.936 89.0743 203.657 81.0376C198.82 63.9873 184.225 53.2627 170.766 57.6804Z"
          fill="#C4C4C4"/>
    <path d="M170.766 57.6804C157.307 62.0981 144.425 77.0957 128.79 84.0187C113.156 90.9416 123.485 93.0975 130.399 105.072C135.988 114.753 137.539 133.292 150.044 120.832C162.549 108.371 169.838 103.136 175.521 116.793C181.204 130.45 187.919 143.575 197.251 147.487C190.702 133.709 184.441 113.356 185.757 105.149C200.752 108.548 207.755 124.342 212.02 142.343C219.4 130.678 207.986 107.481 202.356 101.3C202.356 101.3 205.936 89.0743 203.657 81.0376C198.82 63.9873 184.225 53.2627 170.766 57.6804Z"
          fill="url(#paint2_linear_37_448)"/>
    <ellipse cx="184.335" cy="79.7639" rx="4.63109" ry="4.5369" transform="rotate(60 184.335 79.7639)" fill="#DFDFDF"/>
</svg>
