<svg width="230" height="230" viewBox="0 0 230 230" fill="none" xmlns="http://www.w3.org/2000/svg">
    <defs>
        <linearGradient id="paint0_linear_311_47" x1="77.3958" y1="64.4009" x2="149.909" y2="17.5374" gradientUnits="userSpaceOnUse">
            <stop offset="0.313542" stop-color="#111111"/>
            <stop offset="0.688542" stop-color="#111111"/>
        </linearGradient>
        <linearGradient id="paint1_linear_311_47" x1="165.874" y1="78.7158" x2="213.104" y2="151.171" gradientUnits="userSpaceOnUse">
            <stop offset="0.313542" stop-color="#111111"/>
            <stop offset="0.688542" stop-color="#111111"/>
        </linearGradient>
        <linearGradient id="paint2_linear_311_47" x1="151.634" y1="165.599" x2="79.1206" y2="212.463" gradientUnits="userSpaceOnUse">
            <stop offset="0.313542" stop-color="#111111"/>
            <stop offset="0.688542" stop-color="#111111"/>
        </linearGradient>
        <linearGradient id="paint3_linear_311_47" x1="64.1256" y1="150.309" x2="16.8963" y2="77.854" gradientUnits="userSpaceOnUse">
            <stop offset="0.313542" stop-color="#111111"/>
            <stop offset="0.688542" stop-color="#111111"/>
        </linearGradient>
    </defs>
    <path d="M89.2617 18.1322C86.3703 32.0566 92.8899 50.7914 91.0758 67.8659C89.2617 84.9403 96.2635 77.0387 110.032 77.0387C121.162 77.0387 137.921 84.9991 133.402 67.8659C128.883 50.7326 127.997 41.7647 142.603 43.68C157.209 45.5953 171.87 46.3449 179.89 40.193C164.748 38.9707 144.081 34.1956 137.659 28.93C148.055 17.5948 165.161 19.435 182.807 24.7644C176.422 12.4882 150.737 10.7671 142.603 12.5607C142.603 12.5607 133.843 3.30734 125.778 1.2546C108.667 -3.10038 92.153 4.20782 89.2617 18.1322Z" fill="#C4C4C4"/>
<path d="M89.2617 18.1322C86.3703 32.0566 92.8899 50.7914 91.0758 67.8659C89.2617 84.9403 96.2635 77.0387 110.032 77.0387C121.162 77.0387 137.921 84.9991 133.402 67.8659C128.883 50.7326 127.997 41.7647 142.603 43.68C157.209 45.5953 171.87 46.3449 179.89 40.193C164.748 38.9707 144.081 34.1956 137.659 28.93C148.055 17.5948 165.161 19.435 182.807 24.7644C176.422 12.4882 150.737 10.7671 142.603 12.5607C142.603 12.5607 133.843 3.30734 125.778 1.2546C108.667 -3.10038 92.153 4.20782 89.2617 18.1322Z" fill="url(#paint0_linear_311_47)"/>
<ellipse cx="115.06" cy="17.4194" rx="4.61129" ry="4.55638" fill="#DFDFDF"/>
<path d="M211.945 90.6326C198.08 87.7288 179.426 94.2764 162.424 92.4545C145.423 90.6326 153.291 97.6645 153.291 111.492C153.291 122.67 145.364 139.501 162.424 134.962C179.484 130.424 188.414 129.534 186.507 144.203C184.6 158.872 183.853 173.596 189.979 181.65C191.196 166.444 195.951 145.687 201.194 139.238C212.48 149.678 210.648 166.858 205.341 184.58C217.565 178.168 219.279 152.371 217.493 144.203C217.493 144.203 226.707 135.406 228.751 127.306C233.087 110.121 225.81 93.5364 211.945 90.6326Z" fill="#C4C4C4"/>
<path d="M211.945 90.6326C198.08 87.7288 179.426 94.2764 162.424 92.4545C145.423 90.6326 153.291 97.6645 153.291 111.492C153.291 122.67 145.364 139.501 162.424 134.962C179.484 130.424 188.414 129.534 186.507 144.203C184.6 158.872 183.853 173.596 189.979 181.65C191.196 166.444 195.951 145.687 201.194 139.238C212.48 149.678 210.648 166.858 205.341 184.58C217.565 178.168 219.279 152.371 217.493 144.203C217.493 144.203 226.707 135.406 228.751 127.306C233.087 110.121 225.81 93.5364 211.945 90.6326Z" fill="url(#paint1_linear_311_47)"/>
<ellipse cx="212.655" cy="116.542" rx="4.63109" ry="4.5369" transform="rotate(90 212.655 116.542)" fill="#DFDFDF"/>
<path d="M139.768 211.868C142.659 197.943 136.14 179.209 137.954 162.134C139.768 145.06 132.766 152.961 118.998 152.961C107.867 152.961 91.1081 145.001 95.6275 162.134C100.147 179.267 101.032 188.235 86.4263 186.32C71.8203 184.405 57.1592 183.655 49.1393 189.807C64.281 191.029 84.9487 195.804 91.3704 201.07C80.9748 212.405 63.8684 210.565 46.2223 205.236C52.6071 217.512 78.2929 219.233 86.4263 217.439C86.4263 217.439 95.186 226.693 103.251 228.745C120.362 233.1 136.876 225.792 139.768 211.868Z" fill="#C4C4C4"/>
<path d="M139.768 211.868C142.659 197.943 136.14 179.209 137.954 162.134C139.768 145.06 132.766 152.961 118.998 152.961C107.867 152.961 91.1081 145.001 95.6275 162.134C100.147 179.267 101.032 188.235 86.4263 186.32C71.8203 184.405 57.1592 183.655 49.1393 189.807C64.281 191.029 84.9487 195.804 91.3704 201.07C80.9748 212.405 63.8684 210.565 46.2223 205.236C52.6071 217.512 78.2929 219.233 86.4263 217.439C86.4263 217.439 95.186 226.693 103.251 228.745C120.362 233.1 136.876 225.792 139.768 211.868Z" fill="url(#paint2_linear_311_47)"/>
<ellipse cx="113.969" cy="212.581" rx="4.61129" ry="4.55638" transform="rotate(-180 113.969 212.581)" fill="#DFDFDF"/>
<path d="M18.0547 138.393C31.9196 141.296 50.5743 134.749 67.5757 136.571C84.5771 138.393 76.7093 131.361 76.7093 117.534C76.7094 106.355 84.6357 89.524 67.5757 94.0628C50.5157 98.6016 41.5862 99.4907 43.4933 84.822C45.4004 70.1534 46.1467 55.4293 40.0212 47.3749C38.8041 62.5817 34.0494 83.3381 28.8063 89.7875C17.5196 79.3472 19.352 62.1673 24.6586 44.4454C12.4348 50.8576 10.721 76.6537 12.507 84.8221C12.507 84.8221 3.2932 93.6194 1.24925 101.719C-3.08712 118.904 4.18984 135.489 18.0547 138.393Z" fill="#C4C4C4"/>
<path d="M18.0547 138.393C31.9196 141.296 50.5743 134.749 67.5757 136.571C84.5771 138.393 76.7093 131.361 76.7093 117.534C76.7094 106.355 84.6357 89.524 67.5757 94.0628C50.5157 98.6016 41.5862 99.4907 43.4933 84.822C45.4004 70.1534 46.1467 55.4293 40.0212 47.3749C38.8041 62.5817 34.0494 83.3381 28.8063 89.7875C17.5196 79.3472 19.352 62.1673 24.6586 44.4454C12.4348 50.8576 10.721 76.6537 12.507 84.8221C12.507 84.8221 3.2932 93.6194 1.24925 101.719C-3.08712 118.904 4.18984 135.489 18.0547 138.393Z" fill="url(#paint3_linear_311_47)"/>
<ellipse cx="17.345" cy="112.483" rx="4.63109" ry="4.5369" transform="rotate(-90 17.345 112.483)" fill="#DFDFDF"/>

</svg>
