<svg width="230" height="230" viewBox="0 0 230 230" fill="none" xmlns="http://www.w3.org/2000/svg">
    <defs>
        <linearGradient id="paint0_linear_37_448" x1="67.127" y1="-9.19158" x2="113.137" y2="139.339" gradientUnits="userSpaceOnUse">
            <stop offset="0.426516" stop-color="#DDDCFF"/>
            <stop offset="0.845684" stop-color="#E9E5FF"/>
        </linearGradient>
        <linearGradient id="paint1_linear_37_448" x1="30.2639" y1="218.538" x2="135.89" y2="104.427" gradientUnits="userSpaceOnUse">
            <stop offset="0.426516" stop-color="#DDDCFF"/>
            <stop offset="0.845684" stop-color="#E9E5FF"/>
        </linearGradient>
        <linearGradient id="paint2_linear_37_448" x1="247.288" y1="137.177" x2="95.6623" y2="102.691" gradientUnits="userSpaceOnUse">
            <stop offset="0.426516" stop-color="#DDDCFF"/>
            <stop offset="0.845684" stop-color="#E9E5FF"/>
        </linearGradient>
    </defs>
<path d="M36.9433 95.6912C47.4594 105.089 66.7933 108.752 80.5507 118.781C94.3081 128.811 91.0109 118.853 97.8686 106.975C103.413 97.3728 118.595 86.8609 101.633 82.2662C84.6702 77.6714 76.5289 73.9895 85.4485 62.3383C94.368 50.6871 102.314 38.4105 101.026 28.4419C92.4351 40.8988 78.0406 56.3617 70.3208 59.2915C65.7657 44.7038 75.8662 30.8582 89.2316 18.2768C75.5104 17.6991 61.2388 39.0052 58.7278 46.9111C58.7278 46.9111 46.4194 49.8809 40.6396 55.8213C28.3775 68.424 26.4272 86.2939 36.9433 95.6912Z" fill="#C4C4C4"/>
<path d="M36.9433 95.6912C47.4594 105.089 66.7933 108.752 80.5507 118.781C94.3081 128.811 91.0109 118.853 97.8686 106.975C103.413 97.3728 118.595 86.8609 101.633 82.2662C84.6702 77.6714 76.5289 73.9895 85.4485 62.3383C94.368 50.6871 102.314 38.4105 101.026 28.4419C92.4351 40.8988 78.0406 56.3617 70.3208 59.2915C65.7657 44.7038 75.8662 30.8582 89.2316 18.2768C75.5104 17.6991 61.2388 39.0052 58.7278 46.9111C58.7278 46.9111 46.4194 49.8809 40.6396 55.8213C28.3775 68.424 26.4272 86.2939 36.9433 95.6912Z" fill="url(#paint0_linear_37_448)"/>
<ellipse cx="49.1812" cy="73.0811" rx="4.59362" ry="4.51758" transform="rotate(-60 49.1812 73.0811)" fill="#360542"/>
<path d="M136.187 192.236C139.067 178.43 132.573 159.855 134.38 142.926C136.187 125.997 129.212 133.831 115.497 133.831C104.409 133.831 87.7138 125.938 92.2158 142.926C96.7179 159.913 97.5999 168.805 83.0499 166.906C68.4999 165.007 53.895 164.264 45.9058 170.363C60.9895 171.575 81.578 176.309 87.9751 181.53C77.6194 192.769 60.5785 190.944 43 185.66C49.3603 197.832 74.9477 199.538 83.0499 197.76C83.0499 197.76 91.7761 206.935 99.8104 208.97C116.856 213.288 133.307 206.042 136.187 192.236Z" fill="#C4C4C4"/>
<path d="M136.187 192.236C139.067 178.43 132.573 159.855 134.38 142.926C136.187 125.997 129.212 133.831 115.497 133.831C104.409 133.831 87.7138 125.938 92.2158 142.926C96.7179 159.913 97.5999 168.805 83.0499 166.906C68.4999 165.007 53.895 164.264 45.9058 170.363C60.9895 171.575 81.578 176.309 87.9751 181.53C77.6194 192.769 60.5785 190.944 43 185.66C49.3603 197.832 74.9477 199.538 83.0499 197.76C83.0499 197.76 91.7761 206.935 99.8104 208.97C116.856 213.288 133.307 206.042 136.187 192.236Z" fill="url(#paint1_linear_37_448)"/>
<ellipse cx="110.487" cy="192.943" rx="4.59362" ry="4.51758" transform="rotate(-180 110.487 192.943)" fill="#360542"/>
<path d="M171.562 58.6402C158.161 63.0528 145.313 77.9664 129.743 84.8702C114.173 91.774 124.446 93.8931 131.301 105.766C136.842 115.364 138.348 133.764 150.816 121.37C163.284 108.975 170.546 103.764 176.173 117.309C181.8 130.854 188.455 143.869 197.733 147.734C191.244 134.07 185.056 113.88 186.382 105.73C201.295 109.073 208.231 124.737 212.438 142.597C219.805 131.003 208.495 108 202.905 101.875C202.905 101.875 206.493 89.7323 204.241 81.7592C199.463 64.844 184.963 54.2277 171.562 58.6402Z" fill="#C4C4C4"/>
<path d="M171.562 58.6402C158.161 63.0528 145.313 77.9664 129.743 84.8702C114.173 91.774 124.446 93.8931 131.301 105.766C136.842 115.364 138.348 133.764 150.816 121.37C163.284 108.975 170.546 103.764 176.173 117.309C181.8 130.854 188.455 143.869 197.733 147.734C191.244 134.07 185.056 113.88 186.382 105.73C201.295 109.073 208.231 124.737 212.438 142.597C219.805 131.003 208.495 108 202.905 101.875C202.905 101.875 206.493 89.7323 204.241 81.7592C199.463 64.844 184.963 54.2277 171.562 58.6402Z" fill="url(#paint2_linear_37_448)"/>
<ellipse cx="182.019" cy="73.534" rx="4.59166" ry="4.51951" transform="rotate(60 182.019 73.534)" fill="#360542"/>
</svg>
