<svg width="230" height="230" viewBox="0 0 230 230" fill="none" xmlns="http://www.w3.org/2000/svg">
    <defs>
        <linearGradient id="paint0_linear_310_26" x1="196.257" y1="-8.32376" x2="90.6307" y2="105.787" gradientUnits="userSpaceOnUse">
            <stop offset="0.426516" stop-color="#DDDCFF"/>
            <stop offset="0.845684" stop-color="#E9E5FF"/>
        </linearGradient>
        <linearGradient id="paint1_linear_310_26" x1="33.7436" y1="238.324" x2="139.37" y2="124.213" gradientUnits="userSpaceOnUse">
            <stop offset="0.426516" stop-color="#DDDCFF"/>
            <stop offset="0.845684" stop-color="#E9E5FF"/>
        </linearGradient>
        <linearGradient id="paint2_linear_310_26" x1="238.327" y1="196.394" x2="124.258" y2="90.716" gradientUnits="userSpaceOnUse">
            <stop offset="0.426516" stop-color="#DDDCFF"/>
            <stop offset="0.845684" stop-color="#E9E5FF"/>
        </linearGradient>
        <linearGradient id="paint3_linear_310_26" x1="-8.32736" y1="33.6057" x2="105.742" y2="139.284" gradientUnits="userSpaceOnUse">
            <stop offset="0.426516" stop-color="#DDDCFF"/>
            <stop offset="0.845684" stop-color="#E9E5FF"/>
        </linearGradient>
    </defs>
    <path d="M90.3337 17.9778C87.4535 31.7837 93.948 50.3589 92.1409 67.288C90.3338 84.217 97.3088 76.3827 111.024 76.3827C122.112 76.3827 138.807 84.2753 134.305 67.288C129.803 50.3006 128.921 41.4091 143.471 43.3081C158.021 45.207 172.626 45.9502 180.615 39.8507C165.531 38.6389 144.943 33.9044 138.546 28.6837C148.901 17.445 165.942 19.2696 183.521 24.5536C177.16 12.3818 151.573 10.6754 143.471 12.4538C143.471 12.4538 134.745 3.27918 126.71 1.24393C109.665 -3.07397 93.214 4.172 90.3337 17.9778Z" fill="#C4C4C4"/>
<path d="M90.3337 17.9778C87.4535 31.7837 93.948 50.3589 92.1409 67.288C90.3338 84.217 97.3088 76.3827 111.024 76.3827C122.112 76.3827 138.807 84.2753 134.305 67.288C129.803 50.3006 128.921 41.4091 143.471 43.3081C158.021 45.207 172.626 45.9502 180.615 39.8507C165.531 38.6389 144.943 33.9044 138.546 28.6837C148.901 17.445 165.942 19.2696 183.521 24.5536C177.16 12.3818 151.573 10.6754 143.471 12.4538C143.471 12.4538 134.745 3.27918 126.71 1.24393C109.665 -3.07397 93.214 4.172 90.3337 17.9778Z" fill="url(#paint0_linear_310_26)"/>
<ellipse cx="116.034" cy="17.2711" rx="4.59362" ry="4.51758" fill="#360542"/>
<path d="M139.667 212.022C142.547 198.216 136.052 179.641 137.859 162.712C139.667 145.783 132.692 153.617 118.976 153.617C107.888 153.617 91.1934 145.725 95.6955 162.712C100.198 179.699 101.08 188.591 86.5295 186.692C71.9796 184.793 57.3746 184.05 49.3854 190.149C64.4691 191.361 85.0576 196.096 91.4548 201.316C81.099 212.555 64.0581 210.73 46.4796 205.446C52.8399 217.618 78.4273 219.325 86.5296 217.546C86.5296 217.546 95.2557 226.721 103.29 228.756C120.335 233.074 136.786 225.828 139.667 212.022Z" fill="#C4C4C4"/>
<path d="M139.667 212.022C142.547 198.216 136.052 179.641 137.859 162.712C139.667 145.783 132.692 153.617 118.976 153.617C107.888 153.617 91.1934 145.725 95.6955 162.712C100.198 179.699 101.08 188.591 86.5295 186.692C71.9796 184.793 57.3746 184.05 49.3854 190.149C64.4691 191.361 85.0576 196.096 91.4548 201.316C81.099 212.555 64.0581 210.73 46.4796 205.446C52.8399 217.618 78.4273 219.325 86.5296 217.546C86.5296 217.546 95.2557 226.721 103.29 228.756C120.335 233.074 136.786 225.828 139.667 212.022Z" fill="url(#paint1_linear_310_26)"/>
<ellipse cx="113.967" cy="212.729" rx="4.59362" ry="4.51758" transform="rotate(-180 113.967 212.729)" fill="#360542"/>
<path d="M212.015 90.5165C198.203 87.6375 179.62 94.1292 162.683 92.3229C145.747 90.5165 153.585 97.4885 153.585 111.198C153.585 122.281 145.689 138.969 162.683 134.469C179.678 129.969 188.573 129.087 186.673 143.631C184.774 158.175 184.03 172.773 190.132 180.759C191.345 165.682 196.081 145.102 201.304 138.708C212.548 149.059 210.722 166.093 205.436 183.664C217.613 177.306 219.32 151.73 217.541 143.631C217.541 143.631 226.719 134.908 228.756 126.878C233.075 109.839 225.826 93.3956 212.015 90.5165Z" fill="#C4C4C4"/>
<path d="M212.015 90.5165C198.203 87.6375 179.62 94.1292 162.683 92.3229C145.747 90.5165 153.585 97.4885 153.585 111.198C153.585 122.281 145.689 138.969 162.683 134.469C179.678 129.969 188.573 129.087 186.673 143.631C184.774 158.175 184.03 172.773 190.132 180.759C191.345 165.682 196.081 145.102 201.304 138.708C212.548 149.059 210.722 166.093 205.436 183.664C217.613 177.306 219.32 151.73 217.541 143.631C217.541 143.631 226.719 134.908 228.756 126.878C233.075 109.839 225.826 93.3956 212.015 90.5165Z" fill="url(#paint2_linear_310_26)"/>
<ellipse cx="212.721" cy="116.205" rx="4.59166" ry="4.51951" transform="rotate(90 212.721 116.205)" fill="#360542"/>
<path d="M17.9855 139.483C31.7972 142.363 50.3804 135.871 67.3167 137.677C84.253 139.483 76.4153 132.511 76.4154 118.802C76.4154 107.719 84.3113 91.031 67.3167 95.5311C50.3221 100.031 41.4268 100.913 43.3266 86.3691C45.2263 71.8254 45.9699 57.2267 39.8678 49.2409C38.6554 64.3181 33.9189 84.8978 28.6959 91.2922C17.4524 80.9409 19.2778 63.9073 24.564 46.3363C12.3871 52.6939 10.6799 78.2704 12.459 86.3691C12.459 86.3691 3.28054 95.0915 1.24442 103.122C-3.07533 120.161 4.17374 136.604 17.9855 139.483Z" fill="#C4C4C4"/>
<path d="M17.9855 139.483C31.7972 142.363 50.3804 135.871 67.3167 137.677C84.253 139.483 76.4153 132.511 76.4154 118.802C76.4154 107.719 84.3113 91.031 67.3167 95.5311C50.3221 100.031 41.4268 100.913 43.3266 86.3691C45.2263 71.8254 45.9699 57.2267 39.8678 49.2409C38.6554 64.3181 33.9189 84.8978 28.6959 91.2922C17.4524 80.9409 19.2778 63.9073 24.564 46.3363C12.3871 52.6939 10.6799 78.2704 12.459 86.3691C12.459 86.3691 3.28054 95.0915 1.24442 103.122C-3.07533 120.161 4.17374 136.604 17.9855 139.483Z" fill="url(#paint3_linear_310_26)"/>
<ellipse cx="17.2785" cy="113.795" rx="4.59166" ry="4.51951" transform="rotate(-90 17.2785 113.795)" fill="#360542"/>

</svg>
