<svg width="96" height="151" viewBox="0 0 96 151" fill="none" xmlns="http://www.w3.org/2000/svg">
    <defs>
        <linearGradient id="paint0_linear_60_6" x1="82.9998" y1="13.5036" x2="-14.5001" y2="218.504"
                        gradientUnits="userSpaceOnUse">
            <stop stop-color="#070574"/>
            <stop offset="0.589583" stop-color="#9B00E4"/>
        </linearGradient>
        <linearGradient id="paint1_linear_60_6" x1="83.629" y1="28.3982" x2="32.4219" y2="59.8639"
                        gradientUnits="userSpaceOnUse">
            <stop stop-color="#070574"/>
            <stop offset="0.40672" stop-color="#9B00E4"/>
            <stop offset="1" stop-color="#070574"/>
        </linearGradient>
    </defs>

    <mask id="mask0_60_6" style="mask-type:alpha" maskUnits="userSpaceOnUse" x="0" y="0" width="96" height="151">
        <rect width="96" height="151" fill="#DFDFDF"/>
    </mask>
    <g mask="url(#mask0_60_6)">
        <path d="M107 171.004H-11C-2 151 10.5003 143.5 14.5 96.5037C18.8404 45.5037 13 0.503683 47.5 0.00368297C82 -0.496317 79 50.0037 82 96.5037C85 143.004 98.5 152.504 107 171.004Z"
              fill="url(#paint0_linear_60_6)"/>
        <path fill-rule="evenodd" clip-rule="evenodd"
              d="M30 42.6183C49 26 46 26 65 42.6183C62.1774 74.8524 32.8226 74.8525 30 42.6183ZM65 42.6183C65 42.6183 55.4032 40.0505 47.5 43C40.1613 40.0505 30 42.6183 30 42.6183C30 42.6183 36.2097 46.5 47.5 46.5C60.4862 46.5 65 42.6183 65 42.6183Z"
              fill="url(#paint1_linear_60_6)"/>
        <path d="M30 42.6183C49 26 46 26 65 42.6183M30 42.6183C32.8226 74.8525 62.1774 74.8524 65 42.6183M30 42.6183C30 42.6183 36.2097 46.5 47.5 46.5C60.4862 46.5 65 42.6183 65 42.6183M30 42.6183C30 42.6183 40.1613 40.0505 47.5 43C55.4032 40.0505 65 42.6183 65 42.6183"
              stroke="#DFDFDF" stroke-width="0.1"/>
        <circle cx="60.5" cy="25.5" r="3.5" transform="rotate(180 60.5 25.5)" fill="#DFDFDF"/>
        <circle cx="34.5" cy="25.5" r="3.5" transform="rotate(180 34.5 25.5)" fill="#DFDFDF"/>
    </g>
</svg>
