<svg width="100" height="100" viewBox="0 0 100 100" fill="none" xmlns="http://www.w3.org/2000/svg">
    <defs>
        <linearGradient id="paint0_linear_37_462" x1="19.3853" y1="65.1621" x2="62.4297" y2="37.224"
                        gradientUnits="userSpaceOnUse">
            <stop offset="0.313542" stop-color="#9B00E4"/>
            <stop offset="0.688542" stop-color="#3C009E"/>
        </linearGradient>
    </defs>
    <rect width="100" height="100" rx="50" fill="#F4F4F4"/>
    <path d="M26.4468 37.7446C24.7262 45.9958 28.606 57.0975 27.5264 67.2153C26.4469 77.3331 30.6138 72.6509 38.8073 72.6509C45.4314 72.6509 55.405 77.368 52.7154 67.2153C50.0258 57.0627 49.499 51.7486 58.1912 52.8835C66.8834 54.0184 75.6084 54.4626 80.3812 50.8172C71.3702 50.0929 59.0705 47.2633 55.2488 44.1431C61.4354 37.4262 71.6157 38.5166 82.1172 41.6747C78.3175 34.4001 63.0315 33.3802 58.1912 34.4431C58.1912 34.4431 52.9781 28.9598 48.1784 27.7434C37.9954 25.1628 28.1675 29.4934 26.4468 37.7446Z"
          fill="#C4C4C4"/>
    <path d="M26.4468 37.7446C24.7262 45.9958 28.606 57.0975 27.5264 67.2153C26.4469 77.3331 30.6138 72.6509 38.8073 72.6509C45.4314 72.6509 55.405 77.368 52.7154 67.2153C50.0258 57.0627 49.499 51.7486 58.1912 52.8835C66.8834 54.0184 75.6084 54.4626 80.3812 50.8172C71.3702 50.0929 59.0705 47.2633 55.2488 44.1431C61.4354 37.4262 71.6157 38.5166 82.1172 41.6747C78.3175 34.4001 63.0315 33.3802 58.1912 34.4431C58.1912 34.4431 52.9781 28.9598 48.1784 27.7434C37.9954 25.1628 28.1675 29.4934 26.4468 37.7446Z"
          fill="url(#paint0_linear_37_462)"/>
    <ellipse cx="41.8" cy="37.3223" rx="2.74425" ry="2.69998" fill="#DFDFDF"/>
</svg>
