<svg width="96" height="151" viewBox="0 0 96 151" fill="none" xmlns="http://www.w3.org/2000/svg">
    <defs>
        <linearGradient id="paint0_linear_136_2" x1="146.5" y1="-24.5" x2="-27.5" y2="37.0001" gradientUnits="userSpaceOnUse">
            <stop offset="0.426516" stop-color="#F8DCFF"/>
            <stop offset="0.845684" stop-color="#801093"/>
        </linearGradient>
        <linearGradient id="paint1_linear_136_2" x1="65" y1="35" x2="10.4482" y2="101.007" gradientUnits="userSpaceOnUse">
            <stop offset="0.147272" stop-color="#B863C6"/>
            <stop offset="0.334453" stop-color="#7A1683"/>
            <stop offset="0.902083" stop-color="#9B00E4"/>
        </linearGradient>
        <linearGradient id="paint2_linear_136_2" x1="65" y1="35" x2="10.4482" y2="101.007" gradientUnits="userSpaceOnUse">
            <stop offset="0.147272"/>
            <stop offset="0.334453" stop-color="#7A1683"/>
            <stop offset="0.902083" stop-color="#9B00E4"/>
        </linearGradient>
    </defs>
    <mask id="mask0_136_2" style="mask-type:alpha" maskUnits="userSpaceOnUse" x="0" y="0" width="96" height="151">
<rect width="96" height="151" fill="#DFDFDF"/>
</mask>
<g mask="url(#mask0_136_2)">
<path d="M107 171.004L-11 171.004C-1.99997 151 10.5003 143.5 14.5 96.5037C18.8404 45.5037 13 0.503679 47.5 0.00367274C82 -0.496333 79 50.0037 82 96.5037C85 143.004 98.5 152.504 107 171.004Z" fill="url(#paint0_linear_136_2)"/>
<path fill-rule="evenodd" clip-rule="evenodd" d="M30 42.6183C49 26 46 26 65 42.6183C62.1774 74.8524 32.8226 74.8524 30 42.6183ZM65 42.6183C65 42.6183 55.4032 40.0505 47.5 43C40.1613 40.0505 30 42.6183 30 42.6183C30 42.6183 36.2097 46.5 47.5 46.5C60.4862 46.5 65 42.6183 65 42.6183Z" fill="url(#paint1_linear_136_2)"/>
<path d="M30 42.6183C30 42.6183 36.2097 46.5 47.5 46.5C60.4862 46.5 65 42.6183 65 42.6183C65 42.6183 55.4032 40.0505 47.5 43C40.1613 40.0505 30 42.6183 30 42.6183Z" fill="url(#paint2_linear_136_2)"/>
<path d="M30 42.6183L29.9671 42.5806L29.948 42.5973L29.9502 42.6226L30 42.6183ZM65 42.6183L65.0498 42.6226L65.052 42.5973L65.0329 42.5806L65 42.6183ZM47.5 43L47.4814 43.0464L47.4993 43.0536L47.5175 43.0468L47.5 43ZM30.0329 42.6559C34.7847 38.4998 38.1572 35.3861 40.8431 33.31C43.5294 31.2336 45.5179 30.2046 47.5 30.2046C49.4821 30.2046 51.4706 31.2336 54.1569 33.31C56.8428 35.3861 60.2153 38.4998 64.9671 42.6559L65.0329 42.5806C60.2847 38.4276 56.9072 35.3094 54.2181 33.2309C51.5294 31.1528 49.5179 30.1046 47.5 30.1046C45.4821 30.1046 43.4706 31.1528 40.7819 33.2309C38.0928 35.3094 34.7153 38.4276 29.9671 42.5806L30.0329 42.6559ZM64.9502 42.6139C63.5398 58.7207 55.5054 66.7439 47.5 66.7439C39.4946 66.7439 31.4602 58.7207 30.0498 42.6139L29.9502 42.6226C31.3624 58.75 39.4167 66.8439 47.5 66.8439C55.5834 66.8439 63.6376 58.75 65.0498 42.6226L64.9502 42.6139ZM30 42.6183C29.9735 42.6607 29.9735 42.6607 29.9736 42.6607C29.9737 42.6608 29.9737 42.6608 29.9739 42.6609C29.9741 42.661 29.9744 42.6612 29.9748 42.6615C29.9756 42.662 29.9768 42.6627 29.9783 42.6637C29.9814 42.6656 29.9861 42.6684 29.9922 42.6721C30.0045 42.6796 30.0228 42.6906 30.0471 42.7049C30.0957 42.7336 30.1683 42.7755 30.2647 42.8288C30.4573 42.9354 30.7449 43.0875 31.125 43.2699C31.8854 43.6347 33.0165 44.1207 34.5006 44.6066C37.4688 45.5786 41.849 46.55 47.5 46.55L47.5 46.45C41.8606 46.45 37.4909 45.4806 34.5317 44.5116C33.0521 44.0271 31.9251 43.5428 31.1683 43.1797C30.7899 42.9982 30.5041 42.847 30.3131 42.7413C30.2176 42.6885 30.1457 42.647 30.0979 42.6188C30.074 42.6047 30.056 42.5939 30.0441 42.5867C30.0382 42.5831 30.0337 42.5803 30.0308 42.5785C30.0293 42.5776 30.0282 42.5769 30.0275 42.5765C30.0272 42.5763 30.0269 42.5761 30.0267 42.576C30.0266 42.576 30.0266 42.5759 30.0265 42.5759C30.0265 42.5759 30.0265 42.5759 30 42.6183ZM47.5 46.55C53.9981 46.55 58.3788 45.5788 61.1365 44.6063C62.5152 44.12 63.4881 43.6335 64.1169 43.268C64.4313 43.0853 64.6597 42.9328 64.8097 42.8258C64.8847 42.7722 64.9402 42.7301 64.977 42.7012C64.9954 42.6867 65.0092 42.6756 65.0184 42.668C65.023 42.6642 65.0265 42.6613 65.0289 42.6594C65.03 42.6584 65.0309 42.6576 65.0316 42.6571C65.0319 42.6568 65.0321 42.6566 65.0323 42.6564C65.0324 42.6564 65.0325 42.6563 65.0325 42.6563C65.0326 42.6562 65.0326 42.6562 65 42.6183C64.9674 42.5804 64.9674 42.5803 64.9674 42.5804C64.9674 42.5804 64.9674 42.5804 64.9673 42.5804C64.9672 42.5805 64.967 42.5807 64.9668 42.5809C64.9663 42.5813 64.9655 42.5819 64.9645 42.5828C64.9624 42.5846 64.9592 42.5872 64.9549 42.5908C64.9463 42.5979 64.9331 42.6085 64.9153 42.6225C64.8796 42.6505 64.8254 42.6917 64.7516 42.7444C64.6041 42.8496 64.3784 43.0004 64.0667 43.1816C63.4433 43.5439 62.4761 44.0278 61.1032 44.512C58.3574 45.4803 53.9881 46.45 47.5 46.45L47.5 46.55ZM30 42.6183C30.0123 42.6667 30.0123 42.6667 30.0123 42.6667C30.0124 42.6667 30.0125 42.6667 30.0127 42.6666C30.013 42.6666 30.0134 42.6665 30.014 42.6663C30.0152 42.666 30.017 42.6655 30.0195 42.6649C30.0243 42.6637 30.0316 42.6619 30.0413 42.6596C30.0606 42.6548 30.0895 42.6478 30.1275 42.6388C30.2034 42.6208 30.3159 42.5947 30.4617 42.5625C30.7534 42.4982 31.1784 42.4095 31.7113 42.3123C32.7774 42.1179 34.2751 41.8894 36.0019 41.7529C39.4569 41.4799 43.8227 41.576 47.4814 43.0464L47.5186 42.9536C43.8386 41.4746 39.4544 41.3798 35.994 41.6532C34.2632 41.79 32.762 42.0191 31.6934 42.214C31.1591 42.3114 30.7329 42.4003 30.4402 42.4649C30.2938 42.4972 30.1808 42.5234 30.1044 42.5415C30.0661 42.5506 30.037 42.5576 30.0175 42.5624C30.0077 42.5648 30.0003 42.5667 29.9953 42.5679C29.9928 42.5685 29.991 42.569 29.9897 42.5693C29.9891 42.5695 29.9886 42.5696 29.9883 42.5697C29.9881 42.5697 29.988 42.5697 29.9879 42.5698C29.9878 42.5698 29.9878 42.5698 30 42.6183ZM47.5175 43.0468C51.4593 41.5758 55.8259 41.4799 59.2097 41.7529C60.9011 41.8894 62.3459 42.1179 63.3677 42.3123C63.8786 42.4094 64.2836 42.4981 64.5609 42.5624C64.6995 42.5946 64.8062 42.6206 64.8781 42.6387C64.9141 42.6477 64.9414 42.6547 64.9597 42.6594C64.9688 42.6618 64.9757 42.6636 64.9803 42.6648C64.9826 42.6654 64.9843 42.6658 64.9854 42.6661C64.986 42.6663 64.9864 42.6664 64.9867 42.6665C64.9868 42.6665 64.9869 42.6665 64.987 42.6665C64.9871 42.6666 64.9871 42.6666 65 42.6183C65.0129 42.57 65.0129 42.57 65.0128 42.5699C65.0127 42.5699 65.0126 42.5699 65.0124 42.5698C65.0121 42.5698 65.0117 42.5696 65.0111 42.5695C65.0099 42.5692 65.0081 42.5687 65.0058 42.5681C65.001 42.5668 64.994 42.565 64.9848 42.5626C64.9662 42.5578 64.9387 42.5507 64.9024 42.5416C64.83 42.5235 64.7227 42.4973 64.5835 42.465C64.3051 42.4004 63.8987 42.3115 63.3864 42.214C62.3618 42.0191 60.9134 41.79 59.2177 41.6532C55.8273 41.3797 51.4439 41.4748 47.4825 42.9531L47.5175 43.0468Z" fill="#272129"/>
<circle cx="60.5" cy="25.5" r="3.5" transform="rotate(180 60.5 25.5)" fill="#360542"/>
<circle cx="34.5" cy="25.5" r="3.5" transform="rotate(180 34.5 25.5)" fill="#360542"/>
</g>

</svg>
