<svg width="80" height="130" viewBox="0 0 80 130" fill="none" xmlns="http://www.w3.org/2000/svg">

    <defs>
        <linearGradient id="paint0_linear_38_539" x1="5.00015" y1="116.496" x2="102.5" y2="-88.5036"
                        gradientUnits="userSpaceOnUse">
            <stop stop-color="#070574"/>
            <stop offset="0.589583" stop-color="#9B00E4"/>
        </linearGradient>
        <linearGradient id="paint1_linear_38_539" x1="146" y1="44" x2="14.2895" y2="142.866"
                        gradientUnits="userSpaceOnUse">
            <stop offset="0.313542" stop-color="#E400B2"/>
            <stop offset="0.671875" stop-color="#9E004C"/>
        </linearGradient>
        <linearGradient id="paint2_linear_38_539" x1="4.37096" y1="101.602" x2="55.5781" y2="70.1361"
                        gradientUnits="userSpaceOnUse">
            <stop stop-color="#070574"/>
            <stop offset="0.40672" stop-color="#9B00E4"/>
            <stop offset="1" stop-color="#070574"/>
        </linearGradient>
        <linearGradient id="paint3_linear_38_539" x1="16" y1="92" x2="41.4485" y2="72.7014"
                        gradientUnits="userSpaceOnUse">
            <stop offset="0.313542" stop-color="#E400B2"/>
            <stop offset="1" stop-color="#9E004C"/>
        </linearGradient>
    </defs>
    <mask id="mask0_38_539" style="mask-type:alpha" maskUnits="userSpaceOnUse" x="0" y="0" width="80" height="130">
        <rect x="80" y="130" width="80" height="130" transform="rotate(-180 80 130)" fill="#DFDFDF"/>
    </mask>
    <g mask="url(#mask0_38_539)">
        <path d="M-19 -41.0037H99C90 -21 77.4997 -13.5 73.5 33.4963C69.1596 84.4963 75 129.496 40.5 129.996C6 130.496 9 79.9963 6 33.4963C3 -13.0037 -10.5 -22.5037 -19 -41.0037Z"
              fill="url(#paint0_linear_38_539)"/>
        <path d="M-19 -41.0037H99C90 -21 77.4997 -13.5 73.5 33.4963C69.1596 84.4963 75 129.496 40.5 129.996C6 130.496 9 79.9963 6 33.4963C3 -13.0037 -10.5 -22.5037 -19 -41.0037Z"
              fill="url(#paint1_linear_38_539)"/>
        <path fill-rule="evenodd" clip-rule="evenodd"
              d="M58 87.3817C39 104 42 104 23 87.3817C25.8226 55.1476 55.1774 55.1475 58 87.3817ZM23 87.3817C23 87.3817 32.5968 89.9495 40.5 87C47.8387 89.9495 58 87.3817 58 87.3817C58 87.3817 51.7903 83.5 40.5 83.5C27.5138 83.5 23 87.3817 23 87.3817Z"
              fill="url(#paint2_linear_38_539)"/>
        <path fill-rule="evenodd" clip-rule="evenodd"
              d="M58 87.3817C39 104 42 104 23 87.3817C25.8226 55.1476 55.1774 55.1475 58 87.3817ZM23 87.3817C23 87.3817 32.5968 89.9495 40.5 87C47.8387 89.9495 58 87.3817 58 87.3817C58 87.3817 51.7903 83.5 40.5 83.5C27.5138 83.5 23 87.3817 23 87.3817Z"
              fill="url(#paint3_linear_38_539)"/>
        <path d="M58 87.3817C39 104 42 104 23 87.3817M58 87.3817C55.1774 55.1475 25.8226 55.1476 23 87.3817M58 87.3817C58 87.3817 51.7903 83.5 40.5 83.5C27.5138 83.5 23 87.3817 23 87.3817M58 87.3817C58 87.3817 47.8387 89.9495 40.5 87C32.5968 89.9495 23 87.3817 23 87.3817"
              stroke="#DFDFDF" stroke-width="0.1"/>
        <circle cx="27.5" cy="105.5" r="4.5" fill="#DFDFDF"/>
        <circle cx="52.5" cy="105.5" r="4.5" fill="#DFDFDF"/>
    </g>

</svg>
